<svg xmlns="http://www.w3.org/2000/svg" viewBox="0 0 32 32" width="32" height="32">
  <path fill="#E17726" d="M29.56 12.3c-.56-1.57-2.67-5.52-3.05-6.28-1.58-3.07-4.11-3.69-4.11-3.69s-2.07 1.83-4.09 5.86c-1.89-3.95-3.8-5.69-3.8-5.69s-2.82.72-4.01 3.49c-.64 1.5-2.6 6.13-2.6 6.13l-4 5.92s.87 2.09 3.1 3.32c.3.17.65.22.95.14.79-.19 2.53-.78 2.53-.78l1.45 4.3 3.99 1.9s.42-.03.88-.08c1.64-.17 3.46.22 3.46.22s1.58-.38 3.16-.24c.73.07 1.25.13 1.25.13l3.35-1.92 1.34-4.59s1.86.6 2.65.81c.32.09.67.04.99-.13 2.1-1.12 3.01-3.26 3.01-3.26l-3.46-5.56z"/>
  <path fill="#E27625" d="M10.87 21.36s-1.04-3.09-1.29-3.9c-.31-1.01-1.3-1.61-2.28-1.32-.42.12-.95.3-1.61.53-.55.19-.74.9-.38 1.35 1.48 1.88 2.87 3.86 3.17 4.35.48.78 1.54.49 1.95-.3 0 0 .44-.71.44-.71zM28.43 16.67c-.67-.23-1.21-.41-1.63-.53-.98-.29-1.97.31-2.28 1.32-.25.81-1.29 3.9-1.29 3.9s.44.71.44.71c.41.79 1.47 1.08 1.95.3.31-.49 1.69-2.47 3.17-4.35.36-.45.17-1.16-.36-1.35z"/>
  <path fill="#E4761B" d="M14.54 11.02c0 2.85-2.2 4.34-2.85 4.75-.82.52-2.87-1.31-2.87-1.31s-2.09-4.87-2.48-6.15c-.21-.69-.03-1.44.47-1.96.64-.67 1.76-1.57 2.67-1.42 1.26.21 2.52 3.06 2.52 3.06s.96-2.5 2.19-2.79c.9-.21 2.05.61 2.7 1.26.54.55.72 1.34.46 2.06-.49 1.36-2.82 6.5-2.82 6.5s-2.61.6-2.61.6c-.65.17-2.61-1.78-2.61-4.6h5.23zM23.18 5.17c1.23.29 2.19 2.79 2.19 2.79s1.26-2.85 2.52-3.06c.92-.15 2.03.74 2.67 1.42.5.52.68 1.27.47 1.96-.4 1.28-2.48 6.15-2.48 6.15s-2.05 1.83-2.87 1.31c-.65-.41-2.85-1.9-2.85-4.75h5.23c0 2.83-1.96 4.77-2.61 4.6 0 0-2.61-.6-2.61-.6s-2.33-5.14-2.82-6.5c-.26-.72-.08-1.51.46-2.06.65-.65 1.8-1.47 2.7-1.26z"/>
  <path fill="#D7C1B3" d="M26.25 21.69l-4.13-1.32-4.11 3.55c-.23.19-.57.19-.8 0l-4.11-3.55-4.13 1.32c-.75.24-1.16 1.05-.93 1.8 1.48 4.77 5.76 7.82 8.78 7.82s7.3-3.05 8.78-7.82c.23-.75-.18-1.56-.93-1.8z"/>
</svg>
